nColumns=28
nRows=74
DataType=double
version=3
OpenSimVersion=4.1
endheader
time	ground_force_1_vx	ground_force_1_vy	ground_force_1_vz	ground_force_1_px	ground_force_1_py	ground_force_1_pz	ground_force_1_mx	ground_force_1_my	ground_force_1_mz	ground_force_2_vx	ground_force_2_vy	ground_force_2_vz	ground_force_2_px	ground_force_2_py	ground_force_2_pz	ground_force_2_mx	ground_force_2_my	ground_force_2_mz	ground_force_3_vx	ground_force_3_vy	ground_force_3_vz	ground_force_3_px	ground_force_3_py	ground_force_3_pz	ground_force_3_mx	ground_force_3_my	ground_force_3_mz
1.3	-204.787	311.72	-36.5474	-0.13728	0.006	-0.439535	0	2.12669	0	-190.729	265.481	23.0042	-0.137785	0.006	-0.770094	0	-0.970713	0	0	0	0	0	0	0	0	0	0
1.31	-466.848	735.866	-81.953	-0.142736	0.006	-0.442157	0	6.42753	0	-422.996	633.627	61.1921	-0.153083	0.006	-0.767732	0	-1.92901	0	0	0	0	0	0	0	0	0	0
1.32	-386.039	888.641	-112.181	-0.15542	0.006	-0.441293	0	9.29856	0	-324.979	764.947	86.7635	-0.170186	0.006	-0.767663	0	-2.83752	0	0	0	0	0	0	0	0	0	0
1.33	-314.219	1303.78	-163.309	-0.198087	0.006	-0.447785	0	9.25053	0	-214.958	911.471	105.854	-0.187994	0.006	-0.766787	0	-3.53718	0	0	0	0	0	0	0	0	0	0
1.34	-201.139	2101.22	-134.687	-0.244552	0.006	-0.462474	0	0.278399	0	-218.101	1089.12	129.528	-0.207271	0.006	-0.761304	0	0.046972	0	0	0	0	0	0	0	0	0	0
1.35	-207.654	2210.09	-23.921	-0.254965	0.006	-0.471172	0	-7.62315	0	-221.053	1216.16	107.326	-0.227271	0.006	-0.751447	0	6.2679	0	0	0	0	0	0	0	0	0	0
1.36	-413.688	1603.94	-52.7938	-0.238443	0.006	-0.470799	0	-6.81657	0	-209.954	1135.26	68.2446	-0.235634	0.006	-0.744422	0	8.90202	0	0	0	0	0	0	0	0	0	0
1.37	-452.548	1205.93	-87.5686	-0.225791	0.006	-0.46902	0	-1.11473	0	-248.05	868.712	70.1864	-0.225493	0.006	-0.744377	0	6.94371	0	0	0	0	0	0	0	0	0	0
1.38	-318.374	1163.94	-78.8666	-0.239283	0.006	-0.472533	0	3.23566	0	-262.346	658.221	78.4314	-0.212694	0.006	-0.746356	0	3.50485	0	0	0	0	0	0	0	0	0	0
1.39	-216.024	1179.43	-58.2692	-0.252966	0.006	-0.476977	0	4.92734	0	-212.716	596.609	71.0463	-0.220869	0.006	-0.74303	0	1.42692	0	0	0	0	0	0	0	0	0	0
1.4	-201.196	1146.06	-34.6276	-0.258268	0.006	-0.480512	0	5.54568	0	-148.285	627.876	51.0723	-0.241547	0.006	-0.7355	0	1.24991	0	0	0	0	0	0	0	0	0	0
1.41	-174.322	1113.22	-19.47	-0.263352	0.006	-0.482982	0	6.28004	0	-107.159	650.202	30.5557	-0.256484	0.006	-0.729029	0	1.84788	0	0	0	0	0	0	0	0	0	0
1.42	-123.496	1087.52	-20.9626	-0.269931	0.006	-0.484136	0	6.86671	0	-92.9809	627.963	21.1065	-0.263838	0.006	-0.725096	0	2.18178	0	0	0	0	0	0	0	0	0	0
1.43	-92.0525	1032.84	-25.2923	-0.274176	0.006	-0.484496	0	6.92371	0	-83.2766	570.678	20.7101	-0.267597	0.006	-0.723028	0	1.91396	0	0	0	0	0	0	0	0	0	0
1.44	-90.882	957.878	-24.24	-0.275056	0.006	-0.484717	0	6.52098	0	-67.0829	503.845	21.5419	-0.270832	0.006	-0.721671	0	1.39167	0	0	0	0	0	0	0	0	0	0
1.45	-93.6804	890.815	-23.9068	-0.274685	0.006	-0.484496	0	5.8503	0	-51.1646	446.487	19.4983	-0.273443	0.006	-0.720524	0	1.04609	0	0	0	0	0	0	0	0	0	0
1.46	-86.1654	847.95	-29.6027	-0.274457	0.006	-0.483498	0	5.12254	0	-43.1015	410.371	16.4202	-0.274515	0.006	-0.719894	0	1.05825	0	0	0	0	0	0	0	0	0	0
1.47	-74.4226	827.797	-38.1893	-0.27401	0.006	-0.48208	0	4.38687	0	-41.2501	399.463	16.5849	-0.274056	0.006	-0.720606	0	1.34747	0	0	0	0	0	0	0	0	0	0
1.48	-66.8536	816.215	-43.1809	-0.27245	0.006	-0.480669	0	3.66543	0	-40.9455	399.846	20.167	-0.272042	0.006	-0.722348	0	1.7511	0	0	0	0	0	0	0	0	0	0
1.49	-64.7533	803.349	-45.0071	-0.269818	0.006	-0.479408	0	3.0078	0	-41.1237	397.432	24.7429	-0.268726	0.006	-0.724273	0	2.10237	0	0	0	0	0	0	0	0	0	0
1.5	-64.8527	785.224	-45.5689	-0.267162	0.006	-0.478468	0	2.53582	0	-42.5138	389.745	29.4196	-0.264548	0.006	-0.726321	0	2.32611	0	0	0	0	0	0	0	0	0	0
1.51	-62.423	761.18	-44.5232	-0.265391	0.006	-0.477773	0	2.31995	0	-44.208	377.137	32.719	-0.260259	0.006	-0.728025	0	2.4922	0	0	0	0	0	0	0	0	0	0
1.52	-56.8645	731.081	-42.45	-0.263802	0.006	-0.47705	0	2.42349	0	-44.772	360.907	33.0368	-0.256246	0.006	-0.729241	0	2.64473	0	0	0	0	0	0	0	0	0	0
1.53	-52.0606	690.367	-40.0535	-0.261227	0.006	-0.476293	0	2.82087	0	-44.4606	343.706	30.4771	-0.252645	0.006	-0.730095	0	2.73386	0	0	0	0	0	0	0	0	0	0
1.54	-47.5823	643.242	-36.8843	-0.257821	0.006	-0.475768	0	3.39553	0	-43.3499	324.26	26.5851	-0.249765	0.006	-0.731008	0	2.76307	0	0	0	0	0	0	0	0	0	0
1.55	-42.336	597.161	-32.8523	-0.254424	0.006	-0.475518	0	4.01753	0	-40.0572	303.683	22.6974	-0.248223	0.006	-0.731487	0	2.64666	0	0	0	0	0	0	0	0	0	0
1.56	-37.2933	556.496	-28.5088	-0.252297	0.006	-0.475502	0	4.52514	0	-35.5848	285.272	19.9702	-0.247438	0.006	-0.73143	0	2.3472	0	0	0	0	0	0	0	0	0	0
1.57	-31.2746	521.357	-23.7975	-0.251629	0.006	-0.475744	0	4.81386	0	-32.1345	271.465	18.3361	-0.247273	0.006	-0.731335	0	2.01252	0	0	0	0	0	0	0	0	0	0
1.58	-24.8634	483.653	-19.0518	-0.251837	0.006	-0.476232	0	4.91761	0	-30.1825	264.649	16.924	-0.248095	0.006	-0.73129	0	1.76437	0	0	0	0	0	0	0	0	0	0
1.59	-18.4167	441.866	-14.7008	-0.252875	0.006	-0.476673	0	4.85028	0	-28.6329	263.433	15.2988	-0.249812	0.006	-0.730932	0	1.54582	0	0	0	0	0	0	0	0	0	0
1.6	-9.94011	399.765	-10.5257	-0.25439	0.006	-0.476909	0	4.67198	0	-26.2615	261.09	14.0127	-0.251572	0.006	-0.730302	0	1.37397	0	0	0	0	0	0	0	0	0	0
1.61	-0.306843	360.629	-6.53622	-0.25569	0.006	-0.47722	0	4.57142	0	-23.2083	254.165	13.4148	-0.25391	0.006	-0.729465	0	1.21005	0	0	0	0	0	0	0	0	0	0
1.62	8.29596	327.225	-3.67948	-0.256095	0.006	-0.477444	0	4.44074	0	-19.0852	245.492	12.86	-0.257833	0.006	-0.728442	0	1.05382	0	0	0	0	0	0	0	0	0	0
1.63	15.3298	299.758	-2.13779	-0.255023	0.006	-0.477047	0	4.18267	0	-13.0445	239.033	11.7792	-0.26264	0.006	-0.727276	0	0.941046	0	0	0	0	0	0	0	0	0	0
1.64	20.6113	277.208	-1.62423	-0.253203	0.006	-0.476251	0	3.86973	0	-5.81004	235.737	10.1708	-0.267055	0.006	-0.726039	0	0.859574	0	0	0	0	0	0	0	0	0	0
1.65	24.8127	261.311	-1.46847	-0.252497	0.006	-0.475833	0	3.61552	0	0.301019	235.564	8.74701	-0.269541	0.006	-0.725369	0	0.666287	0	0	0	0	0	0	0	0	0	0
1.66	29.9717	258.457	-1.41545	-0.25409	0.006	-0.47597	0	3.40886	0	4.17447	238.767	8.66727	-0.269941	0.006	-0.725171	0	0.431948	0	0	0	0	0	0	0	0	0	0
1.67	36.1198	269.99	-1.38768	-0.258393	0.006	-0.476771	0	3.20509	0	6.17995	245.43	10.2349	-0.269574	0.006	-0.725121	0	0.247355	0	0	0	0	0	0	0	0	0	0
1.68	42.5295	288.699	-1.21523	-0.264046	0.006	-0.477965	0	2.96432	0	8.06882	257.38	11.2323	-0.26991	0.006	-0.72453	0	0.181795	0	0	0	0	0	0	0	0	0	0
1.69	47.8572	311.571	-1.52152	-0.269997	0.006	-0.479172	0	2.68506	0	10.3031	276.889	10.2688	-0.271724	0.006	-0.723088	0	0.37427	0	0	0	0	0	0	0	0	0	0
1.7	52.0258	337.152	-2.41076	-0.276106	0.006	-0.479984	0	2.34827	0	12.7498	302.593	8.04549	-0.275021	0.006	-0.721204	0	0.788441	0	0	0	0	0	0	0	0	0	0
1.71	57.7449	368.157	-3.95857	-0.281588	0.006	-0.480678	0	1.8662	0	17.2519	333.291	5.39939	-0.278686	0.006	-0.719346	0	1.24177	0	0	0	0	0	0	0	0	0	0
1.72	62.8679	405.565	-6.00234	-0.28549	0.006	-0.481444	0	1.2778	0	22.9848	366.592	3.51837	-0.281286	0.006	-0.717972	0	1.68151	0	0	0	0	0	0	0	0	0	0
1.73	64.2215	443.859	-7.3218	-0.287889	0.006	-0.482277	0	0.598723	0	27.5352	399.596	3.04984	-0.282508	0.006	-0.717117	0	2.1215	0	0	0	0	0	0	0	0	0	0
1.74	65.1246	483.897	-7.48231	-0.289063	0.006	-0.482948	0	-0.108409	0	31.0563	434.317	2.8881	-0.282107	0.006	-0.716833	0	2.54471	0	0	0	0	0	0	0	0	0	0
1.75	67.8004	525.055	-7.08634	-0.289323	0.006	-0.483583	0	-0.721138	0	32.6122	471.295	2.83529	-0.280109	0.006	-0.717189	0	2.92777	0	0	0	0	0	0	0	0	0	0
1.76	71.5537	564.936	-7.49272	-0.288824	0.006	-0.484098	0	-1.33075	0	32.3185	505.433	2.99225	-0.276892	0.006	-0.717752	0	3.24542	0	0	0	0	0	0	0	0	0	0
1.77	75.3528	606.242	-8.41003	-0.287455	0.006	-0.48443	0	-1.90765	0	33.035	534.281	2.46161	-0.273103	0.006	-0.718266	0	3.53266	0	0	0	0	0	0	0	0	0	0
1.78	77.5536	647.11	-9.04164	-0.284982	0.006	-0.484644	0	-2.42129	0	34.755	559.104	2.35365	-0.269372	0.006	-0.718756	0	3.76062	0	0	0	0	0	0	0	0	0	0
1.79	76.9638	684.616	-9.65269	-0.280707	0.006	-0.48461	0	-2.73032	0	35.8062	587.437	4.03197	-0.265207	0.006	-0.719513	0	3.93743	0	0	0	0	0	0	0	0	0	0
1.8	72.6779	728.267	-11.9782	-0.274126	0.006	-0.48394	0	-2.93544	0	33.3898	624.023	7.56948	-0.259098	0.006	-0.721075	0	4.19011	0	0	0	0	0	0	0	0	0	0
1.81	64.0316	779.879	-14.4488	-0.264995	0.006	-0.482898	0	-3.19338	0	25.1939	659.534	12.3346	-0.251149	0.006	-0.723155	0	4.54648	0	0	0	0	0	0	0	0	0	0
1.82	45.5662	830.981	-17.6409	-0.253003	0.006	-0.481368	0	-3.43165	0	14.1246	695.985	16.5854	-0.242041	0.006	-0.72538	0	5.02733	0	0	0	0	0	0	0	0	0	0
1.83	20.1019	877.953	-23.0642	-0.239758	0.006	-0.479552	0	-3.63063	0	1.30404	734.682	22.0835	-0.23231	0.006	-0.727783	0	5.66398	0	0	0	0	0	0	0	0	0	0
1.84	-4.18152	919.642	-29.8792	-0.226181	0.006	-0.477722	0	-3.80605	0	-13.3031	774.77	30.001	-0.222206	0.006	-0.73035	0	6.39948	0	0	0	0	0	0	0	0	0	0
1.85	-29.0092	954.772	-37.9566	-0.212722	0.006	-0.475899	0	-3.96184	0	-30.1228	817.697	39.4467	-0.212102	0.006	-0.733014	0	7.18319	0	0	0	0	0	0	0	0	0	0
1.86	-51.9957	984.671	-45.364	-0.20037	0.006	-0.474325	0	-4.18996	0	-48.0772	856.183	49.8579	-0.202255	0.006	-0.735682	0	7.81757	0	0	0	0	0	0	0	0	0	0
1.87	-71.0117	1007.87	-51.495	-0.189353	0.006	-0.473029	0	-4.45641	0	-65.2799	884.333	61.1548	-0.193072	0.006	-0.738318	0	8.02774	0	0	0	0	0	0	0	0	0	0
1.88	-87.9706	1025.82	-56.5291	-0.179836	0.006	-0.47195	0	-4.68639	0	-79.087	906.296	72.1129	-0.185433	0.006	-0.740777	0	7.8883	0	0	0	0	0	0	0	0	0	0
1.89	-100.272	1040.83	-60.9553	-0.171906	0.006	-0.470993	0	-4.81131	0	-86.7275	925.59	80.8609	-0.179955	0.006	-0.742896	0	7.73483	0	0	0	0	0	0	0	0	0	0
1.9	-108.62	1052.51	-65.9987	-0.165251	0.006	-0.470184	0	-4.73417	0	-88.5336	943.912	86.8967	-0.176278	0.006	-0.744533	0	7.74637	0	0	0	0	0	0	0	0	0	0
1.91	-113.769	1062.69	-71.2327	-0.159718	0.006	-0.469451	0	-4.52651	0	-86.9797	960.458	91.4274	-0.173573	0.006	-0.745916	0	7.67798	0	0	0	0	0	0	0	0	0	0
1.92	-116.07	1071.49	-76.0226	-0.154995	0.006	-0.468609	0	-4.3411	0	-85.082	971.905	95.5762	-0.170813	0.006	-0.747405	0	7.24872	0	0	0	0	0	0	0	0	0	0
1.93	-118.95	1078.25	-79.757	-0.150766	0.006	-0.467786	0	-4.22654	0	-86.9775	977.408	100.483	-0.167531	0.006	-0.749103	0	6.52824	0	0	0	0	0	0	0	0	0	0
1.94	-122.159	1082.76	-81.3327	-0.147079	0.006	-0.467161	0	-4.20948	0	-91.5539	979.32	105.786	-0.163927	0.006	-0.750794	0	5.80734	0	0	0	0	0	0	0	0	0	0
1.95	-126.458	1082.78	-81.1303	-0.143662	0.006	-0.466735	0	-4.18903	0	-97.1962	977.91	108.794	-0.16042	0.006	-0.752132	0	5.34925	0	0	0	0	0	0	0	0	0	0
1.96	-133.367	1076.82	-79.6059	-0.140298	0.006	-0.466377	0	-4.10882	0	-104.772	973.964	107.334	-0.157123	0.006	-0.752998	0	5.45296	0	0	0	0	0	0	0	0	0	0
1.97	-141.723	1060.77	-76.0428	-0.136958	0.006	-0.4661	0	-3.97799	0	-113.074	966.427	100.685	-0.154112	0.006	-0.753443	0	5.99012	0	0	0	0	0	0	0	0	0	0
1.98	-148.29	1026.69	-69.2881	-0.133575	0.006	-0.46585	0	-3.75736	0	-120.582	949.399	90.236	-0.15116	0.006	-0.753676	0	6.47105	0	0	0	0	0	0	0	0	0	0
1.99	-148.089	962.273	-58.691	-0.129828	0.006	-0.465573	0	-3.34337	0	-124.637	911.496	76.7586	-0.1479	0.006	-0.753828	0	6.54147	0	0	0	0	0	0	0	0	0	0
2	-134.738	855.159	-43.638	-0.125412	0.006	-0.465086	0	-2.77157	0	-121.705	839.386	60.7072	-0.143702	0.006	-0.753843	0	6.02985	0	0	0	0	0	0	0	0	0	0
2.01	-102.988	701.37	-23.758	-0.120227	0.006	-0.464335	0	-2.26255	0	-107.985	726.852	41.6235	-0.138356	0.006	-0.754018	0	5.20207	0	0	0	0	0	0	0	0	0	0
2.02	-52.9325	509.929	-0.595002	-0.115052	0.006	-0.463386	0	-2.28674	0	-79.1253	576.675	18.2955	-0.1324	0.006	-0.754538	0	4.64696	0	0	0	0	0	0	0	0	0	0
2.03	5.66355	292.268	20.1616	-0.110865	0.006	-0.462716	0	-2.40985	0	-34.2848	390.876	-8.14192	-0.126224	0.006	-0.754917	0	4.38756	0	0	0	0	0	0	0	0	0	0
